<svg xmlns="http://www.w3.org/2000/svg" viewBox="0 0 76.9 96"><defs><style>.a{fill:#303030;}.b{fill:#f44336;}.c{fill:#212121;}.d{fill:#fff;}</style></defs><title>songnote2</title><path class="a" d="M81.3,96H14.7a5.12,5.12,0,0,1-5.1-5.1V5.1A5.12,5.12,0,0,1,14.7,0H81.4a5.12,5.12,0,0,1,5.1,5.1V90.8A5.16,5.16,0,0,1,81.3,96Z" transform="translate(-9.6)"/><polygon class="b" points="51.8 0 65 0 65 18.8 58.4 14.1 51.8 18.8 51.8 0"/><path class="c" d="M14.7,0A5.12,5.12,0,0,0,9.6,5.1V90.8a5.12,5.12,0,0,0,5.1,5.1h6.6V0Z" transform="translate(-9.6)"/><path class="d" d="M46.9,28.5V48.6a9.6,9.6,0,0,0-3.3-.6,9.8,9.8,0,1,0,9.8,9.8V35h8.7V28.5Z" transform="translate(-9.6)"/></svg>