<svg xmlns="http://www.w3.org/2000/svg" xmlns:xlink="http://www.w3.org/1999/xlink" viewBox="0 0 379.57 112.47"><defs><style>.cls-1,.cls-2{fill:#fff;}.cls-2{stroke:#fff;stroke-miterlimit:10;stroke-width:0.2px;}.cls-3{fill:url(#linear-gradient);}.cls-4{fill:#231f20;}</style><linearGradient id="linear-gradient" x1="78.81" y1="72.46" x2="31.63" y2="25.27" gradientTransform="matrix(1, 0, 0, -1, 0, 114.47)" gradientUnits="userSpaceOnUse"><stop offset="0" stop-color="#00a0ff"/><stop offset="0.01" stop-color="#00a1ff"/><stop offset="0.26" stop-color="#00beff"/><stop offset="0.51" stop-color="#00d2ff"/><stop offset="0.76" stop-color="#00dfff"/><stop offset="1" stop-color="#00e3ff"/></linearGradient></defs><title>get-it-on-google-play</title><g id="Layer_2" data-name="Layer 2"><g id="Layer_1-2" data-name="Layer 1"><g id="_Group_" data-name="&lt;Group&gt;"><g id="_Group_2" data-name="&lt;Group&gt;"><g id="_Group_3" data-name="&lt;Group&gt;"><path id="_Compound_Path_" data-name="&lt;Compound Path&gt;" class="cls-1" d="M365.51,2.25a11.82,11.82,0,0,1,11.81,11.81V98.41a11.82,11.82,0,0,1-11.81,11.81H14.06A11.82,11.82,0,0,1,2.25,98.41V14.06A11.82,11.82,0,0,1,14.06,2.25H365.51m0-2.25H14.06A14.1,14.1,0,0,0,0,14.06V98.41a14.1,14.1,0,0,0,14.06,14.06H365.51a14.1,14.1,0,0,0,14.06-14.06V14.06A14.1,14.1,0,0,0,365.51,0Z"/></g></g><g id="_Group_4" data-name="&lt;Group&gt;"><path id="_Compound_Path_2" data-name="&lt;Compound Path&gt;" class="cls-2" d="M133.32,28.8a7.61,7.61,0,0,1-2.1,5.63,8.18,8.18,0,0,1-6.2,2.5,8.69,8.69,0,0,1-8.76-8.81A8.69,8.69,0,0,1,125,19.3a8.7,8.7,0,0,1,3.46.71,7,7,0,0,1,2.64,1.88l-1.48,1.48a5.7,5.7,0,0,0-4.62-2,6.52,6.52,0,0,0-6.55,6.74A6.63,6.63,0,0,0,129.74,33a5.31,5.31,0,0,0,1.41-3.42H125v-2h8.17A7.15,7.15,0,0,1,133.32,28.8Z"/><path id="_Compound_Path_3" data-name="&lt;Compound Path&gt;" class="cls-2" d="M146.28,21.75H138.6V27.1h6.93v2H138.6v5.35h7.68v2.07h-9.85V19.68h9.85Z"/><path id="_Compound_Path_4" data-name="&lt;Compound Path&gt;" class="cls-2" d="M155.42,36.55h-2.17V21.75h-4.71V19.68h11.59v2.07h-4.71Z"/><path id="_Compound_Path_5" data-name="&lt;Compound Path&gt;" class="cls-2" d="M168.52,36.55V19.68h2.17V36.55Z"/><path id="_Compound_Path_6" data-name="&lt;Compound Path&gt;" class="cls-2" d="M180.31,36.55h-2.17V21.75h-4.71V19.68H185v2.07h-4.71Z"/><path id="_Compound_Path_7" data-name="&lt;Compound Path&gt;" class="cls-2" d="M207,34.37a8.76,8.76,0,0,1-12.37,0,8.62,8.62,0,0,1-2.48-6.25,8.62,8.62,0,0,1,2.48-6.25,8.73,8.73,0,0,1,12.36,0,8.63,8.63,0,0,1,2.5,6.24A8.64,8.64,0,0,1,207,34.37ZM196.19,33a6.49,6.49,0,0,0,9.17,0,6.6,6.6,0,0,0,1.88-4.84,6.6,6.6,0,0,0-1.88-4.84,6.49,6.49,0,0,0-9.17,0,6.61,6.61,0,0,0-1.87,4.84A6.61,6.61,0,0,0,196.19,33Z"/><path id="_Compound_Path_8" data-name="&lt;Compound Path&gt;" class="cls-2" d="M212.49,36.55V19.68h2.64l8.2,13.12h.09l-.09-3.25V19.68h2.17V36.55h-2.26l-8.58-13.76h-.09l.09,3.25V36.55Z"/></g><path id="_Compound_Path_9" data-name="&lt;Compound Path&gt;" class="cls-1" d="M191.57,61.16a12,12,0,1,0,12,12A11.79,11.79,0,0,0,191.57,61.16Zm0,19.21a7.27,7.27,0,1,1,6.75-7.25A6.92,6.92,0,0,1,191.57,80.36ZM165.39,61.16a12,12,0,1,0,12,12A11.79,11.79,0,0,0,165.39,61.16Zm0,19.21a7.27,7.27,0,1,1,6.75-7.25A6.92,6.92,0,0,1,165.39,80.36ZM134.24,64.83V69.9h12.14a10.59,10.59,0,0,1-2.76,6.39A12.43,12.43,0,0,1,134.24,80a13.5,13.5,0,0,1,0-27,12.94,12.94,0,0,1,9.15,3.62L147,53a17.7,17.7,0,0,0-12.73-5.12,18.57,18.57,0,1,0,0,37.14c5.53,0,9.69-1.81,13-5.21s4.39-8.06,4.39-11.87a16.51,16.51,0,0,0-.27-3.17Zm127.39,3.94c-1-2.67-4-7.61-10.24-7.61s-11.28,4.85-11.28,12a11.7,11.7,0,0,0,11.87,12,11.89,11.89,0,0,0,10-5.3l-4.08-2.72A6.83,6.83,0,0,1,252,80.36a6.08,6.08,0,0,1-5.8-3.62l16-6.61Zm-16.31,4a6.56,6.56,0,0,1,6.25-7A4.63,4.63,0,0,1,256,68.31Zm-13,11.6h5.25V49.2h-5.25Zm-8.61-20.52h-.18a8.29,8.29,0,0,0-6.3-2.67c-6,0-11.46,5.25-11.46,12a11.84,11.84,0,0,0,11.46,11.91,8.15,8.15,0,0,0,6.3-2.72h.18v1.72c0,4.58-2.45,7-6.39,7a6.62,6.62,0,0,1-6-4.26l-4.58,1.9a11.4,11.4,0,0,0,10.6,7.07c6.16,0,11.37-3.62,11.37-12.46V61.88h-5Zm-6,16.53c-3.62,0-6.66-3-6.66-7.2s3-7.29,6.66-7.29,6.39,3.08,6.39,7.29S221.27,80.36,217.69,80.36ZM286.24,49.2H273.67V84.35h5.25V71h7.33c5.82,0,11.53-4.21,11.53-10.92S292.06,49.2,286.24,49.2Zm.14,16.94h-7.46v-12h7.46a6,6,0,1,1,0,12Zm32.42-5c-3.8,0-7.73,1.67-9.36,5.38l4.66,1.94a5,5,0,0,1,4.79-2.58c2.71,0,5.47,1.63,5.52,4.52v.36a11.61,11.61,0,0,0-5.47-1.36c-5,0-10.13,2.76-10.13,7.91,0,4.7,4.11,7.73,8.73,7.73a7.4,7.4,0,0,0,6.69-3.44h.18v2.71h5.06V70.82C329.47,64.57,324.82,61.09,318.8,61.09Zm-.63,19.26c-1.72,0-4.12-.86-4.12-3,0-2.71,3-3.75,5.56-3.75a9.35,9.35,0,0,1,4.79,1.18A6.36,6.36,0,0,1,318.17,80.36Zm29.76-18.5-6,15.24h-.18l-6.24-15.24h-5.65l9.36,21.3L333.86,95h5.47l14.43-33.15ZM300.67,84.35h5.25V49.2h-5.25Z"/><path class="cls-3" d="M29.55,91.48h0c-.07-.07-.15-.12-.22-.19Z"/><polygon class="cls-4" points="63.67 56.24 63.67 56.24 52.84 45.4 63.67 56.24"/><polygon class="cls-4" points="29.33 91.99 29.13 91.78 28.91 91.61 29.24 92.08 29.36 91.96 29.36 91.96 29.33 91.99"/><polygon class="cls-4" points="29.36 91.96 29.13 91.78 29.33 91.99 29.36 91.96"/><path class="cls-1" d="M29.7,23.68a6.21,6.21,0,0,0-.16,1.47V87.33a6.2,6.2,0,0,0,.16,1.47L62.26,56.24Z"/><path class="cls-1" d="M89.27,53.48,76.51,46.23l-10,10,10,10L89.27,59c1.41-.8,2.19-1.78,2.19-2.76S90.68,54.28,89.27,53.48Z"/><path class="cls-1" d="M31.86,90.88a4.71,4.71,0,0,0,2.58-.73L73.8,67.78l-9.42-9.42Z"/><path class="cls-1" d="M73.8,44.69,34.44,22.33a4.77,4.77,0,0,0-2.58-.73L64.38,54.11Z"/></g></g></g></svg>