<?xml version="1.0" encoding="utf-8"?>
<!-- Generator: Adobe Illustrator 21.0.0, SVG Export Plug-In . SVG Version: 6.00 Build 0)  -->
<svg version="1.1" xmlns="http://www.w3.org/2000/svg" xmlns:xlink="http://www.w3.org/1999/xlink" x="0px" y="0px"
	 viewBox="0 0 96 96" style="enable-background:new 0 0 96 96;" xml:space="preserve">
<style type="text/css">
	.st0{display:none;}
	.st1{display:inline;fill:#303030;}
	.st2{display:inline;}
	.st3{fill:none;stroke:#FFFFFF;stroke-miterlimit:10;}
	.st4{display:inline;fill:#D22F30;}
	.st5{fill:#FFFFFF;}
	.st6{fill:none;stroke:#FFFFFF;stroke-width:2;stroke-miterlimit:10;}
	.st7{fill:#303030;}
	.st8{display:none;fill:#303030;}
	.st9{display:none;fill:#FFFFFF;}
	.st10{display:none;fill:#D32F2F;}
	.st11{fill:#F44336;}
	.st12{fill:#212121;}
	.st13{display:none;fill:#440508;}
</style>
<g id="Camada_2" class="st0">
	<rect id="XMLID_3_" class="st1" width="96" height="96"/>
</g>
<g id="Camada_1" class="st0">
	<path id="XMLID_1_" class="st1" d="M84,96H12C5.4,96,0,90.6,0,84V12C0,5.4,5.4,0,12,0h72c6.6,0,12,5.4,12,12v72
		C96,90.6,90.6,96,84,96z"/>
	<g id="XMLID_6_" class="st2">
		<line id="XMLID_5_" class="st3" x1="0" y1="43.4" x2="96" y2="43.4"/>
		<line id="XMLID_8_" class="st3" x1="0" y1="52.6" x2="96" y2="52.6"/>
		<line id="XMLID_9_" class="st3" x1="0" y1="61.7" x2="96" y2="61.7"/>
		<line id="XMLID_11_" class="st3" x1="0" y1="70.9" x2="96" y2="70.9"/>
		<line id="XMLID_7_" class="st3" x1="0" y1="34.3" x2="96" y2="34.3"/>
		<line id="XMLID_10_" class="st3" x1="0" y1="25.1" x2="96" y2="25.1"/>
	</g>
	<circle id="XMLID_2_" class="st4" cx="48" cy="48" r="30.5"/>
	<path id="XMLID_4_" class="st5" d="M47.5,39v9.3C47,48.1,46.5,48,46,48c-2.5,0-4.5,2-4.5,4.5s2,4.5,4.5,4.5s4.5-2,4.5-4.5V42h4v-3
		H47.5z"/>
	<g id="XMLID_16_" class="st2">
		<line id="XMLID_13_" class="st6" x1="48" y1="58.4" x2="48" y2="64.1"/>
		<path id="XMLID_14_" class="st5" d="M48.3,54.8l-0.8,0c-3.3,0-6-2.8-5.9-6.1l0.1-11c0-3.3,2.8-6,6.1-5.9l0.8,0
			c3.3,0,6,2.8,5.9,6.1l-0.1,11C54.3,52.2,51.6,54.8,48.3,54.8z"/>
		<path id="XMLID_15_" class="st6" d="M57.7,48.8c-0.1,5.4-4.5,9.7-9.9,9.7h0c-5.4-0.1-9.7-4.5-9.7-9.9"/>
	</g>
</g>
<g id="Camada_3">
	<g id="XMLID_21_">
		<path id="XMLID_17_" class="st7" d="M81.3,96H14.7c-2.8,0-5.1-2.3-5.1-5.1V5.1c0-2.8,2.3-5.1,5.1-5.1h66.7c2.8,0,5.1,2.3,5.1,5.1
			v85.7C86.5,93.7,84.2,96,81.3,96z"/>
		<path id="XMLID_23_" class="st8" d="M77.9,90.8H19.6c-2.8,0-5-2.3-5-5V8.1c0-2.8,2.3-5,5-5h58.2c2.8,0,5,2.3,5,5v77.8
			C82.9,88.6,80.6,90.8,77.9,90.8z"/>
		<path id="XMLID_26_" class="st9" d="M82,85.1l-61,2.7c-2.3,0-2.8,0.5-2.8,0.5c0.6,0.5,1.4,0.5,2.2,0.5H77
			C79.3,88.8,81.3,87.2,82,85.1z"/>
		<rect id="XMLID_18_" x="63.5" y="0" class="st10" width="12.4" height="96"/>
		<polygon id="XMLID_19_" class="st11" points="61.4,0 74.6,0 74.6,18.8 68,14.1 61.4,18.8 		"/>
		<g id="XMLID_24_">
			<path id="XMLID_29_" class="st12" d="M14.7,0c-2.8,0-5.1,2.3-5.1,5.1v85.7c0,2.8,2.3,5.1,5.1,5.1h6.6V0H14.7z"/>
		</g>
	</g>
	<rect id="XMLID_22_" x="12.7" class="st13" width="70.5" height="96"/>
	<path id="XMLID_20_" class="st5" d="M46.9,28.5v20.1c-1.1-0.4-2.2-0.6-3.3-0.6c-5.4,0-9.8,4.3-9.8,9.8s4.3,9.8,9.8,9.8
		s9.8-4.3,9.8-9.8V35h8.7v-6.5H46.9z"/>
</g>
</svg>
